<?xml version="1.0" encoding="UTF-8" standalone="no"?>
<!-- Created with Inkscape (http://www.inkscape.org/) -->
<svg
   xmlns:dc="http://purl.org/dc/elements/1.1/"
   xmlns:cc="http://web.resource.org/cc/"
   xmlns:rdf="http://www.w3.org/1999/02/22-rdf-syntax-ns#"
   xmlns:svg="http://www.w3.org/2000/svg"
   xmlns="http://www.w3.org/2000/svg"
   xmlns:sodipodi="http://sodipodi.sourceforge.net/DTD/sodipodi-0.dtd"
   xmlns:inkscape="http://www.inkscape.org/namespaces/inkscape"
   width="175.74854"
   height="43.15625"
   id="svg2221"
   sodipodi:version="0.32"
   inkscape:version="0.45"
   sodipodi:modified="true"
   version="1.0">
  <defs
     id="defs2223" />
  <sodipodi:namedview
     id="base"
     pagecolor="#ffffff"
     bordercolor="#666666"
     borderopacity="1.0"
     gridtolerance="10000"
     guidetolerance="10"
     objecttolerance="10"
     inkscape:pageopacity="0.0"
     inkscape:pageshadow="2"
     inkscape:zoom="5.342861"
     inkscape:cx="87.874268"
     inkscape:cy="21.578125"
     inkscape:document-units="px"
     inkscape:current-layer="layer1"
     borderlayer="true"
     gridspacingx="0px"
     gridspacingy="0px"
     gridempspacing="0"
     inkscape:window-width="1024"
     inkscape:window-height="742"
     inkscape:window-x="-4"
     inkscape:window-y="-4" />
  <metadata
     id="metadata2226">
    <rdf:RDF>
      <cc:Work
         rdf:about="">
        <dc:format>image/svg+xml</dc:format>
        <dc:type
           rdf:resource="http://purl.org/dc/dcmitype/StillImage" />
      </cc:Work>
    </rdf:RDF>
  </metadata>
  <g
     inkscape:label="Layer 1"
     inkscape:groupmode="layer"
     id="layer1"
     transform="translate(102.15998,-259.35549)">
    <path
       style="fill-rule:evenodd;overflow:visible"
       d="M -63.221996,295.63722 L -63.221996,265.85842 L -54.939281,265.85842 C -52.740062,265.85842 -50.577464,266.01662 -49.112621,268.04201 C -47.940257,269.66994 -47.756664,271.37697 -47.756664,273.40187 C -47.756664,275.98244 -48.269359,278.52443 -51.055003,279.63527 L -51.055003,279.71535 C -48.159007,280.15236 -47.060863,282.77394 -47.060863,286.62355 C -47.060863,287.85597 -47.134105,289.08449 -47.426097,290.2759 C -48.525707,294.04933 -50.504711,295.63722 -54.168773,295.63722 L -63.221996,295.63722 L -63.221996,295.63722 z M -57.138011,277.88869 C -55.891429,277.88869 -54.279125,277.96877 -53.47346,276.85597 C -52.99641,276.10256 -52.923167,275.07033 -52.923167,273.63967 C -52.923167,271.4175 -53.362621,270.30422 -55.708812,270.2256 L -58.091136,270.2256 L -58.091136,277.88869 L -57.138011,277.88869 L -57.138011,277.88869 z M -56.991527,291.26808 C -55.929027,291.26808 -54.829418,291.38918 -53.912425,290.95168 C -52.520824,290.2759 -52.33723,288.33058 -52.33723,286.82277 C -52.33723,283.60597 -52.923168,282.25637 -56.112621,282.25637 L -58.091136,282.25637 L -58.091136,291.26808 L -56.991527,291.26808 L -56.991527,291.26808 z "
       id="path9" />
    <path
       style="fill-rule:evenodd;overflow:visible"
       d="M -45.078929,265.95851 L -40.597972,265.95851 L -40.597972,295.63722 L -45.078929,295.63722 L -45.078929,265.95851 z "
       id="polygon11" />
    <path
       style="fill-rule:evenodd;overflow:visible"
       d="M -28.255687,292.36379 L -28.326976,292.36379 C -29.049144,294.97512 -30.417796,296.18215 -32.689281,296.22316 C -36.402171,296.22316 -37.231273,294.15676 -37.231273,290.49074 L -37.231273,273.64943 L -32.54475,273.64943 L -32.54475,288.69777 C -32.54475,289.67238 -32.581859,290.76418 -32.076488,291.6216 C -31.679515,292.09035 -31.246898,292.32277 -30.634105,292.32277 C -28.435863,292.32277 -28.471996,289.63332 -28.471996,287.91847 L -28.471996,273.64943 L -23.786449,273.64943 L -23.786449,295.63722 L -28.255687,295.63722 L -28.255687,292.36379 L -28.255687,292.36379 z "
       id="path13" />
    <path
       style="fill-rule:evenodd;overflow:visible"
       d="M -20.613109,281.2134 C -20.827953,276.02834 -18.382152,273.06545 -13.776683,273.06545 C -7.2659413,273.06545 -6.5823473,276.73 -6.5823473,282.73293 L -6.5823473,285.69582 L -15.935863,285.69582 L -15.935863,288.89308 C -15.900218,291.77785 -14.892406,292.32277 -13.49055,292.32277 C -11.763011,292.32277 -11.259105,290.95949 -11.331371,288.19191 L -6.6555893,288.19191 C -6.4749253,293.10402 -8.3450423,296.22316 -13.129222,296.22316 C -18.525707,296.22316 -20.720531,293.45363 -20.613109,286.98293 L -20.613109,281.2134 L -20.613109,281.2134 z M -11.259105,281.79738 L -11.259105,279.88722 C -11.295238,277.66506 -11.835277,276.9634 -13.705394,276.9634 C -16.043285,276.9634 -15.935863,278.91213 -15.935863,280.90138 L -15.935863,281.79738 L -11.259105,281.79738 L -11.259105,281.79738 z "
       id="path15" />
    <path
       style="fill-rule:evenodd;overflow:visible"
       d="M 5.5524157,295.71535 C 2.8971457,296.06691 -2.1575443,296.3384 -2.1575443,292.24465 L -2.1575443,277.35256 L -4.8723863,277.35256 L -4.8723863,273.64943 L -2.1917223,273.64943 L -2.1917223,267.60842 L 2.3229257,267.60842 L 2.3229257,273.64943 L 5.5524157,273.64943 L 5.5524157,277.35256 L 2.3229257,277.35256 L 2.3229257,290.99855 C 2.4264457,291.9341 4.9996857,291.81691 5.5524157,291.73879 L 5.5524157,295.71535 L 5.5524157,295.71535 z "
       id="path17" />
    <path
       style="fill-rule:evenodd;overflow:visible"
       d="M 7.3873757,285.42433 C 7.4225357,277.89992 7.4957757,273.06545 14.650076,273.06545 C 21.694016,273.06545 21.731126,277.89992 21.767266,285.42433 C 21.803396,293.06496 20.779956,296.3384 14.650076,296.22316 C 8.4088657,296.3384 7.3512457,293.06496 7.3873757,285.42433 L 7.3873757,285.42433 z M 12.130546,288.4634 C 12.130546,291.1548 12.350266,292.32277 14.650076,292.32277 C 16.839526,292.32277 17.022146,291.1548 17.022146,288.4634 L 17.022146,281.13478 C 17.022146,279.06838 17.022146,276.9634 14.650076,276.9634 C 12.130546,276.9634 12.130546,279.06838 12.130546,281.13478 L 12.130546,288.4634 L 12.130546,288.4634 z "
       id="path19" />
    <path
       style="fill-rule:evenodd;overflow:visible"
       d="M 24.144216,285.42433 C 24.181326,277.89992 24.252616,273.06545 31.334646,273.06545 C 38.305346,273.06545 38.342456,277.89992 38.378586,285.42433 C 38.413746,293.06496 37.403006,296.3384 31.334646,296.22316 C 25.156906,296.3384 24.108086,293.06496 24.144216,285.42433 L 24.144216,285.42433 z M 28.839526,288.4634 C 28.839526,291.1548 29.057306,292.32277 31.334646,292.32277 C 33.500656,292.32277 33.681326,291.1548 33.681326,288.4634 L 33.681326,281.13478 C 33.681326,279.06838 33.681326,276.9634 31.334646,276.9634 C 28.839526,276.9634 28.839526,279.06838 28.839526,281.13478 L 28.839526,288.4634 L 28.839526,288.4634 z "
       id="path21" />
    <path
       style="fill-rule:evenodd;overflow:visible"
       d="M 50.047536,295.71535 C 47.394216,296.06691 42.337576,296.3384 42.337576,292.24465 L 42.337576,277.35256 L 40.068046,277.35256 L 40.068046,273.64943 L 42.303396,273.64943 L 42.303396,267.60842 L 46.818046,267.60842 L 46.818046,273.64943 L 50.047536,273.64943 L 50.047536,277.35256 L 46.818046,277.35256 L 46.818046,290.99855 C 46.922536,291.9341 49.495776,291.81691 50.047536,291.73879 L 50.047536,295.71535 L 50.047536,295.71535 z "
       id="path23" />
    <path
       style="fill-rule:evenodd;overflow:visible"
       d="M 53.046556,295.63722 L 53.046556,266.00539 L 57.828786,266.00539 L 57.828786,275.91115 L 57.903976,275.91115 C 59.263356,273.33742 61.176446,273.06545 62.207696,273.06545 C 64.930346,273.06545 67.138356,274.74221 66.991876,278.67873 L 66.991876,295.63722 L 62.207696,295.63722 L 62.207696,280.58937 C 62.207696,278.44533 61.986986,277.04201 60.184256,276.9634 C 58.381516,276.88625 57.756516,278.67873 57.828786,281.01857 L 57.828786,295.63722 L 53.046556,295.63722 L 53.046556,295.63722 z "
       id="path25" />
    <path
       style="fill-rule:evenodd;overflow:visible"
       d="M 66.644216,265.71633 L 69.358086,265.71633 L 69.358086,266.33644 L 68.409836,266.33644 L 68.409836,269.93752 L 67.597336,269.93752 L 67.597336,266.33644 L 66.644216,266.33644 L 66.644216,265.71633 z "
       id="polygon27" />
    <path
       style="fill-rule:evenodd;overflow:visible"
       d="M 70.653006,269.93752 L 69.840506,269.93752 L 69.840506,265.71633 L 71.135426,265.71633 L 71.571946,267.67531 C 71.640306,267.99611 71.687186,268.32277 71.722336,268.64894 L 71.733086,268.64894 C 71.774096,268.23244 71.803396,267.95168 71.862966,267.67531 L 72.297536,265.71633 L 73.588556,265.71633 L 73.588556,269.93752 L 72.775076,269.93752 L 72.775076,268.61037 C 72.775076,267.7715 72.791676,266.93263 72.843436,266.09279 L 72.831716,266.09279 L 71.959646,269.93752 L 71.467456,269.93752 L 70.611986,266.09279 L 70.583666,266.09279 C 70.635426,266.93263 70.653006,267.7715 70.653006,268.61037 L 70.653006,269.93752 L 70.653006,269.93752 z "
       id="path29" />
    <path
       style="fill:#0060ae;fill-rule:evenodd;overflow:visible"
       d="M -87.034984,259.35549 C -95.236156,259.51955 -100.91975,263.9424 -101.65998,271.76174 C -101.90657,274.36281 -102.08625,277.00783 -102.15998,279.60549 L -102.15998,283.88674 C -102.03205,287.7715 -101.5345,291.33595 -100.37873,294.07424 C -98.184887,299.27736 -94.340649,302.36525 -87.503734,302.51174 L -86.441234,302.51174 C -78.919261,302.34181 -74.04475,300.20705 -71.566234,291.57424 C -69.08723,282.94142 -70.884105,270.55763 -73.191234,266.19924 C -75.499339,261.83888 -79.08723,259.49318 -86.097484,259.35549 L -87.034984,259.35549 z M -87.722484,262.41799 L -76.597484,273.38674 L -84.128734,280.88674 L -76.566234,288.44924 L -87.722484,299.60549 L -87.722484,284.66799 L -94.034984,290.98049 L -96.316234,288.73049 L -88.566234,280.98049 L -96.253734,273.29299 L -94.003734,271.01174 L -87.722484,277.29299 L -87.722484,262.41799 z M -84.816234,269.54299 L -84.816234,277.29299 L -80.972484,273.44924 L -84.816234,269.54299 z M -84.816234,284.38674 L -84.816234,292.16799 L -80.972484,288.32424 L -84.816234,284.38674 z "
       id="path31" />
  </g>
</svg>
